<svg width="24" height="24" viewBox="0 0 24 24" fill="none" xmlns="http://www.w3.org/2000/svg">
<path d="M11.9922 0C15.1748 0 18.227 1.26428 20.4775 3.51472C22.7279 5.76516 23.9922 8.8174 23.9922 12C23.9922 15.1826 22.7279 18.2348 20.4775 20.4853C18.227 22.7357 15.1748 24 11.9922 24C8.80959 24 5.75734 22.7357 3.50691 20.4853C1.25647 18.2348 -0.0078125 15.1826 -0.0078125 12C-0.0078125 8.8174 1.25647 5.76516 3.50691 3.51472C5.75734 1.26428 8.80959 0 11.9922 0ZM10.8672 5.625V12C10.8672 12.375 11.0547 12.7266 11.3687 12.9375L15.8688 15.9375C16.3844 16.2844 17.0828 16.1437 17.4297 15.6234C17.7766 15.1031 17.6359 14.4094 17.1156 14.0625L13.1172 11.4V5.625C13.1172 5.00156 12.6156 4.5 11.9922 4.5C11.3687 4.5 10.8672 5.00156 10.8672 5.625Z" fill="#38C695"/>
</svg>
