<svg width="17" height="18" viewBox="0 0 17 18" fill="none" xmlns="http://www.w3.org/2000/svg">
<path d="M12.7722 0C13.0802 0 13.3755 0.122331 13.5933 0.340082C13.811 0.557832 13.9333 0.853165 13.9333 1.16111V16.2556H15.675C15.829 16.2556 15.9766 16.3167 16.0855 16.4256C16.1944 16.5345 16.2556 16.6821 16.2556 16.8361C16.2556 16.9901 16.1944 17.1378 16.0855 17.2466C15.9766 17.3555 15.829 17.4167 15.675 17.4167H0.580556C0.426583 17.4167 0.278916 17.3555 0.170041 17.2466C0.0611655 17.1378 0 16.9901 0 16.8361C0 16.6821 0.0611655 16.5345 0.170041 16.4256C0.278916 16.3167 0.426583 16.2556 0.580556 16.2556H2.32222V1.16111C2.32222 0.853165 2.44455 0.557832 2.6623 0.340082C2.88005 0.122331 3.17539 0 3.48333 0H12.7722ZM10.45 10.45C10.7579 10.45 11.0533 10.3277 11.271 10.1099C11.4888 9.89217 11.6111 9.59684 11.6111 9.28889C11.6111 8.98094 11.4888 8.68561 11.271 8.46786C11.0533 8.25011 10.7579 8.12778 10.45 8.12778C10.1421 8.12778 9.84672 8.25011 9.62897 8.46786C9.41122 8.68561 9.28889 8.98094 9.28889 9.28889C9.28889 9.59684 9.41122 9.89217 9.62897 10.1099C9.84672 10.3277 10.1421 10.45 10.45 10.45Z" fill="#8DD3BB"/>
</svg>
