<svg width="174" height="48" viewBox="0 0 174 48" fill="none" xmlns="http://www.w3.org/2000/svg">
<path d="M5.33268 24C5.33268 22.5272 4.13877 21.3333 2.66602 21.3333C1.19326 21.3333 -0.000648563 22.5272 -0.000648499 24C-0.000648434 25.4728 1.19326 26.6667 2.66602 26.6667C4.13877 26.6667 5.33268 25.4728 5.33268 24ZM38.666 23.5L2.66602 23.5L2.66602 24.5L38.666 24.5L38.666 23.5Z" fill="black"/>
<path d="M103.166 16.5L92.666 16.5V6C92.666 4.80653 92.1919 3.66193 91.348 2.81802C90.5041 1.97411 89.3595 1.5 88.166 1.5L70.166 1.5C68.9725 1.5 67.8279 1.97411 66.984 2.81802C66.1401 3.66193 65.666 4.80653 65.666 6L65.666 45C65.666 45.3978 65.8241 45.7794 66.1054 46.0607C66.3867 46.342 66.7682 46.5 67.166 46.5H76.916C77.1149 46.5 77.3057 46.421 77.4463 46.2803C77.587 46.1397 77.666 45.9489 77.666 45.75V39.0422C77.666 38.235 78.2866 37.5422 79.0938 37.5019C79.2966 37.4921 79.4993 37.5236 79.6896 37.5945C79.8799 37.6654 80.0538 37.7741 80.2008 37.9142C80.3478 38.0543 80.4648 38.2227 80.5448 38.4094C80.6248 38.596 80.666 38.797 80.666 39V45.75C80.666 45.9489 80.745 46.1397 80.8857 46.2803C81.0263 46.421 81.2171 46.5 81.416 46.5L106.166 46.5C106.564 46.5 106.945 46.342 107.227 46.0607C107.508 45.7794 107.666 45.3978 107.666 45L107.666 21C107.666 19.8065 107.192 18.6619 106.348 17.818C105.504 16.9741 104.359 16.5 103.166 16.5ZM71.861 40.4878C71.5504 40.5284 71.2348 40.4708 70.9586 40.3229C70.6823 40.175 70.4594 39.9444 70.3209 39.6633C70.1825 39.3823 70.1355 39.0649 70.1866 38.7558C70.2377 38.4467 70.3843 38.1614 70.6058 37.9398C70.8274 37.7183 71.1127 37.5717 71.4218 37.5206C71.7309 37.4695 72.0483 37.5164 72.3294 37.6549C72.6104 37.7933 72.8411 38.0163 72.9889 38.2925C73.1368 38.5688 73.1945 38.8843 73.1538 39.195C73.111 39.5228 72.961 39.8273 72.7272 40.0611C72.4934 40.2949 72.1889 40.4449 71.861 40.4878ZM71.861 32.9878C71.5504 33.0284 71.2348 32.9708 70.9586 32.8229C70.6823 32.675 70.4594 32.4444 70.3209 32.1633C70.1825 31.8823 70.1355 31.5649 70.1866 31.2558C70.2377 30.9467 70.3843 30.6614 70.6058 30.4398C70.8274 30.2183 71.1127 30.0717 71.4218 30.0206C71.7309 29.9695 72.0483 30.0164 72.3294 30.1549C72.6104 30.2933 72.8411 30.5163 72.9889 30.7925C73.1368 31.0688 73.1945 31.3843 73.1538 31.695C73.111 32.0228 72.961 32.3273 72.7272 32.5611C72.4934 32.7949 72.1889 32.9449 71.861 32.9878ZM71.861 25.4878C71.5504 25.5284 71.2348 25.4708 70.9586 25.3229C70.6823 25.175 70.4594 24.9444 70.3209 24.6633C70.1825 24.3823 70.1355 24.0649 70.1866 23.7558C70.2377 23.4467 70.3843 23.1614 70.6058 22.9398C70.8274 22.7183 71.1127 22.5717 71.4218 22.5206C71.7309 22.4695 72.0483 22.5164 72.3294 22.6549C72.6104 22.7933 72.8411 23.0163 72.9889 23.2925C73.1368 23.5688 73.1945 23.8843 73.1538 24.195C73.111 24.5228 72.961 24.8273 72.7272 25.0611C72.4934 25.2949 72.1889 25.4449 71.861 25.4878ZM71.861 17.9878C71.5504 18.0284 71.2348 17.9708 70.9586 17.8229C70.6823 17.675 70.4594 17.4444 70.3209 17.1633C70.1825 16.8823 70.1355 16.5649 70.1866 16.2558C70.2377 15.9467 70.3843 15.6614 70.6058 15.4398C70.8274 15.2183 71.1127 15.0717 71.4218 15.0206C71.7309 14.9695 72.0483 15.0164 72.3294 15.1549C72.6104 15.2933 72.8411 15.5163 72.9889 15.7925C73.1368 16.0688 73.1945 16.3843 73.1538 16.695C73.111 17.0228 72.961 17.3273 72.7272 17.5611C72.4934 17.7949 72.1889 17.9449 71.861 17.9878ZM71.861 10.4878C71.5504 10.5284 71.2348 10.4708 70.9586 10.3229C70.6823 10.175 70.4594 9.94439 70.3209 9.66334C70.1825 9.38228 70.1355 9.06493 70.1866 8.75582C70.2377 8.44671 70.3843 8.16136 70.6058 7.93982C70.8274 7.71828 71.1127 7.57167 71.4218 7.52057C71.7309 7.46946 72.0483 7.51644 72.3294 7.65489C72.6104 7.79334 72.8411 8.01632 72.9889 8.29254C73.1368 8.56875 73.1945 8.88434 73.1538 9.195C73.111 9.52285 72.961 9.82734 72.7272 10.0611C72.4934 10.2949 72.1889 10.4449 71.861 10.4878ZM79.361 32.9878C79.0504 33.0284 78.7348 32.9708 78.4586 32.8229C78.1823 32.675 77.9594 32.4444 77.8209 32.1633C77.6825 31.8823 77.6355 31.5649 77.6866 31.2558C77.7377 30.9467 77.8843 30.6614 78.1058 30.4398C78.3274 30.2183 78.6127 30.0717 78.9218 30.0206C79.2309 29.9695 79.5483 30.0164 79.8294 30.1549C80.1104 30.2933 80.3411 30.5163 80.4889 30.7925C80.6368 31.0688 80.6945 31.3843 80.6538 31.695C80.611 32.0228 80.461 32.3273 80.2272 32.5611C79.9934 32.7949 79.6889 32.9449 79.361 32.9878ZM79.361 25.4878C79.0504 25.5284 78.7348 25.4708 78.4586 25.3229C78.1823 25.175 77.9594 24.9444 77.8209 24.6633C77.6825 24.3823 77.6355 24.0649 77.6866 23.7558C77.7377 23.4467 77.8843 23.1614 78.1058 22.9398C78.3274 22.7183 78.6127 22.5717 78.9218 22.5206C79.2309 22.4695 79.5483 22.5164 79.8294 22.6549C80.1104 22.7933 80.3411 23.0163 80.4889 23.2925C80.6368 23.5688 80.6945 23.8843 80.6538 24.195C80.611 24.5228 80.461 24.8273 80.2272 25.0611C79.9934 25.2949 79.6889 25.4449 79.361 25.4878ZM79.361 17.9878C79.0504 18.0284 78.7348 17.9708 78.4586 17.8229C78.1823 17.675 77.9594 17.4444 77.8209 17.1633C77.6825 16.8823 77.6355 16.5649 77.6866 16.2558C77.7377 15.9467 77.8843 15.6614 78.1058 15.4398C78.3274 15.2183 78.6127 15.0717 78.9218 15.0206C79.2309 14.9695 79.5483 15.0164 79.8294 15.1549C80.1104 15.2933 80.3411 15.5163 80.4889 15.7925C80.6368 16.0688 80.6945 16.3843 80.6538 16.695C80.611 17.0228 80.461 17.3273 80.2272 17.5611C79.9934 17.7949 79.6889 17.9449 79.361 17.9878ZM79.361 10.4878C79.0504 10.5284 78.7348 10.4708 78.4586 10.3229C78.1823 10.175 77.9594 9.94439 77.8209 9.66334C77.6825 9.38228 77.6355 9.06493 77.6866 8.75582C77.7377 8.44671 77.8843 8.16136 78.1058 7.93982C78.3274 7.71828 78.6127 7.57167 78.9218 7.52057C79.2309 7.46946 79.5483 7.51644 79.8294 7.65489C80.1104 7.79334 80.3411 8.01632 80.4889 8.29254C80.6368 8.56875 80.6945 8.88434 80.6538 9.195C80.611 9.52285 80.461 9.82734 80.2272 10.0611C79.9934 10.2949 79.6889 10.4449 79.361 10.4878ZM86.861 40.4878C86.5504 40.5284 86.2348 40.4708 85.9586 40.3229C85.6823 40.175 85.4594 39.9444 85.3209 39.6633C85.1825 39.3823 85.1355 39.0649 85.1866 38.7558C85.2377 38.4467 85.3843 38.1614 85.6058 37.9398C85.8274 37.7183 86.1127 37.5717 86.4218 37.5206C86.7309 37.4695 87.0483 37.5164 87.3294 37.6549C87.6104 37.7933 87.8411 38.0163 87.9889 38.2925C88.1368 38.5688 88.1945 38.8843 88.1538 39.195C88.111 39.5228 87.961 39.8273 87.7272 40.0611C87.4934 40.2949 87.1889 40.4449 86.861 40.4878ZM86.861 32.9878C86.5504 33.0284 86.2348 32.9708 85.9586 32.8229C85.6823 32.675 85.4594 32.4444 85.3209 32.1633C85.1825 31.8823 85.1355 31.5649 85.1866 31.2558C85.2377 30.9467 85.3843 30.6614 85.6058 30.4398C85.8274 30.2183 86.1127 30.0717 86.4218 30.0206C86.7309 29.9695 87.0483 30.0164 87.3294 30.1549C87.6104 30.2933 87.8411 30.5163 87.9889 30.7925C88.1368 31.0688 88.1945 31.3843 88.1538 31.695C88.111 32.0228 87.961 32.3273 87.7272 32.5611C87.4934 32.7949 87.1889 32.9449 86.861 32.9878ZM86.861 25.4878C86.5504 25.5284 86.2348 25.4708 85.9586 25.3229C85.6823 25.175 85.4594 24.9444 85.3209 24.6633C85.1825 24.3823 85.1355 24.0649 85.1866 23.7558C85.2377 23.4467 85.3843 23.1614 85.6058 22.9398C85.8274 22.7183 86.1127 22.5717 86.4218 22.5206C86.7309 22.4695 87.0483 22.5164 87.3294 22.6549C87.6104 22.7933 87.8411 23.0163 87.9889 23.2925C88.1368 23.5688 88.1945 23.8843 88.1538 24.195C88.111 24.5228 87.961 24.8273 87.7272 25.0611C87.4934 25.2949 87.1889 25.4449 86.861 25.4878ZM86.861 17.9878C86.5504 18.0284 86.2348 17.9708 85.9586 17.8229C85.6823 17.675 85.4594 17.4444 85.3209 17.1633C85.1825 16.8823 85.1355 16.5649 85.1866 16.2558C85.2377 15.9467 85.3843 15.6614 85.6058 15.4398C85.8274 15.2183 86.1127 15.0717 86.4218 15.0206C86.7309 14.9695 87.0483 15.0164 87.3294 15.1549C87.6104 15.2933 87.8411 15.5163 87.9889 15.7925C88.1368 16.0688 88.1945 16.3843 88.1538 16.695C88.111 17.0228 87.961 17.3273 87.7272 17.5611C87.4934 17.7949 87.1889 17.9449 86.861 17.9878ZM86.861 10.4878C86.5504 10.5284 86.2348 10.4708 85.9586 10.3229C85.6823 10.175 85.4594 9.94439 85.3209 9.66334C85.1825 9.38228 85.1355 9.06493 85.1866 8.75582C85.2377 8.44671 85.3843 8.16136 85.6058 7.93982C85.8274 7.71828 86.1127 7.57167 86.4218 7.52057C86.7309 7.46946 87.0483 7.51644 87.3294 7.65489C87.6104 7.79334 87.8411 8.01632 87.9889 8.29254C88.1368 8.56875 88.1945 8.88434 88.1538 9.195C88.111 9.52285 87.961 9.82734 87.7272 10.0611C87.4934 10.2949 87.1889 10.4449 86.861 10.4878ZM104.291 43.5L92.666 43.5L92.666 19.5L103.166 19.5C103.564 19.5 103.945 19.658 104.227 19.9393C104.508 20.2206 104.666 20.6022 104.666 21L104.666 43.125C104.666 43.2245 104.627 43.3198 104.556 43.3902C104.486 43.4605 104.39 43.5 104.291 43.5Z" fill="#112211"/>
<path d="M100.166 37.5C99.8693 37.5 99.5793 37.588 99.3327 37.7528C99.086 37.9176 98.8937 38.1519 98.7802 38.426C98.6667 38.7001 98.637 39.0017 98.6948 39.2926C98.7527 39.5836 98.8956 39.8509 99.1054 40.0607C99.3151 40.2704 99.5824 40.4133 99.8734 40.4712C100.164 40.5291 100.466 40.4993 100.74 40.3858C101.014 40.2723 101.248 40.08 101.413 39.8334C101.578 39.5867 101.666 39.2967 101.666 39C101.666 38.6022 101.508 38.2206 101.227 37.9393C100.945 37.658 100.564 37.5 100.166 37.5ZM100.166 30C99.8693 30 99.5793 30.088 99.3327 30.2528C99.086 30.4176 98.8937 30.6519 98.7802 30.926C98.6667 31.2001 98.637 31.5017 98.6948 31.7926C98.7527 32.0836 98.8956 32.3509 99.1054 32.5607C99.3151 32.7704 99.5824 32.9133 99.8734 32.9712C100.164 33.0291 100.466 32.9993 100.74 32.8858C101.014 32.7723 101.248 32.58 101.413 32.3334C101.578 32.0867 101.666 31.7967 101.666 31.5C101.666 31.1022 101.508 30.7206 101.227 30.4393C100.945 30.158 100.564 30 100.166 30ZM100.166 22.5C99.8693 22.5 99.5793 22.588 99.3327 22.7528C99.086 22.9176 98.8937 23.1519 98.7802 23.426C98.6667 23.7001 98.637 24.0017 98.6948 24.2926C98.7527 24.5836 98.8956 24.8509 99.1054 25.0607C99.3151 25.2704 99.5824 25.4133 99.8734 25.4712C100.164 25.5291 100.466 25.4994 100.74 25.3858C101.014 25.2723 101.248 25.08 101.413 24.8334C101.578 24.5867 101.666 24.2967 101.666 24C101.666 23.6022 101.508 23.2206 101.227 22.9393C100.945 22.658 100.564 22.5 100.166 22.5ZM94.166 37.5C93.8693 37.5 93.5793 37.588 93.3327 37.7528C93.086 37.9176 92.8937 38.1519 92.7802 38.426C92.6667 38.7001 92.637 39.0017 92.6948 39.2926C92.7527 39.5836 92.8956 39.8509 93.1054 40.0607C93.3151 40.2704 93.5824 40.4133 93.8734 40.4712C94.1644 40.5291 94.466 40.4993 94.74 40.3858C95.0141 40.2723 95.2484 40.08 95.4132 39.8334C95.578 39.5867 95.666 39.2967 95.666 39C95.666 38.6022 95.508 38.2206 95.2267 37.9393C94.9454 37.658 94.5638 37.5 94.166 37.5ZM94.166 30C93.8693 30 93.5793 30.088 93.3327 30.2528C93.086 30.4176 92.8937 30.6519 92.7802 30.926C92.6667 31.2001 92.637 31.5017 92.6948 31.7926C92.7527 32.0836 92.8956 32.3509 93.1054 32.5607C93.3151 32.7704 93.5824 32.9133 93.8734 32.9712C94.1644 33.0291 94.466 32.9993 94.74 32.8858C95.0141 32.7723 95.2484 32.58 95.4132 32.3334C95.578 32.0867 95.666 31.7967 95.666 31.5C95.666 31.1022 95.508 30.7206 95.2267 30.4393C94.9454 30.158 94.5638 30 94.166 30ZM94.166 22.5C93.8693 22.5 93.5793 22.588 93.3327 22.7528C93.086 22.9176 92.8937 23.1519 92.7802 23.426C92.6667 23.7001 92.637 24.0017 92.6948 24.2926C92.7527 24.5836 92.8956 24.8509 93.1054 25.0607C93.3151 25.2704 93.5824 25.4133 93.8734 25.4712C94.1644 25.5291 94.466 25.4994 94.74 25.3858C95.0141 25.2723 95.2484 25.08 95.4132 24.8334C95.578 24.5867 95.666 24.2967 95.666 24C95.666 23.6022 95.508 23.2206 95.2267 22.9393C94.9454 22.658 94.5638 22.5 94.166 22.5Z" fill="black"/>
<path d="M173.333 24C173.333 22.5272 172.139 21.3333 170.666 21.3333C169.193 21.3333 167.999 22.5272 167.999 24C167.999 25.4728 169.193 26.6667 170.666 26.6667C172.139 26.6667 173.333 25.4728 173.333 24ZM170.666 23.5L134.666 23.5L134.666 24.5L170.666 24.5L170.666 23.5Z" fill="black"/>
</svg>
