<svg width="23" height="24" viewBox="0 0 23 24" fill="none" xmlns="http://www.w3.org/2000/svg">
<path d="M11.336 0C11.5516 0 11.7672 0.046875 11.9641 0.135938L20.7906 3.88125C21.8219 4.31719 22.5906 5.33438 22.586 6.5625C22.5625 11.2125 20.65 19.7203 12.5735 23.5875C11.7906 23.9625 10.8813 23.9625 10.0985 23.5875C2.0219 19.7203 0.109396 11.2125 0.0859588 6.5625C0.0812713 5.33438 0.850021 4.31719 1.88127 3.88125L10.7125 0.135938C10.9047 0.046875 11.1203 0 11.336 0ZM11.336 3.13125V20.85C17.8047 17.7188 19.5438 10.7859 19.586 6.62813L11.336 3.13125Z" fill="#38C695"/>
</svg>
