<svg width="37" height="93" viewBox="0 0 37 93" fill="none" xmlns="http://www.w3.org/2000/svg">
<path opacity="0.25" d="M36.1211 0.21875L18.1211 10.2188M0.121094 0.21875L18.1211 10.2188M18.1211 10.2188V26.2188" stroke="#112211" stroke-width="0.5"/>
<g opacity="0.2">
<mask id="path-3-inside-1_101_8484" fill="white">
<path d="M26.3711 42.4688H21.1211V37.2188C21.1211 36.622 20.884 36.0497 20.4621 35.6278C20.0401 35.2058 19.4678 34.9688 18.8711 34.9688H9.87109C9.27436 34.9688 8.70206 35.2058 8.2801 35.6278C7.85815 36.0497 7.62109 36.622 7.62109 37.2188L7.62109 56.7188C7.62109 56.9177 7.70011 57.1084 7.84076 57.2491C7.98142 57.3897 8.17218 57.4688 8.37109 57.4688H13.2461C13.3456 57.4688 13.4409 57.4292 13.5113 57.3589C13.5816 57.2886 13.6211 57.1932 13.6211 57.0938V53.7398C13.6211 53.3363 13.9314 52.9898 14.335 52.9697C14.4364 52.9648 14.5378 52.9806 14.6329 53.016C14.728 53.0514 14.815 53.1058 14.8885 53.1759C14.962 53.2459 15.0205 53.3301 15.0605 53.4234C15.1005 53.5168 15.1211 53.6172 15.1211 53.7188V57.0938C15.1211 57.1932 15.1606 57.2886 15.2309 57.3589C15.3013 57.4292 15.3966 57.4688 15.4961 57.4688H27.8711C28.07 57.4688 28.2608 57.3897 28.4014 57.2491C28.5421 57.1084 28.6211 56.9177 28.6211 56.7188L28.6211 44.7188C28.6211 44.122 28.384 43.5497 27.9621 43.1278C27.5401 42.7058 26.9678 42.4688 26.3711 42.4688ZM10.7186 54.4627C10.5633 54.483 10.4055 54.4541 10.2674 54.3802C10.1293 54.3063 10.0178 54.1909 9.94854 54.0504C9.87931 53.9099 9.85583 53.7512 9.88138 53.5967C9.90693 53.4421 9.98023 53.2994 10.091 53.1887C10.2018 53.0779 10.3444 53.0046 10.499 52.979C10.6536 52.9535 10.8122 52.977 10.9528 53.0462C11.0933 53.1154 11.2086 53.2269 11.2825 53.365C11.3565 53.5031 11.3853 53.6609 11.365 53.8162C11.3436 53.9802 11.2686 54.1324 11.1517 54.2493C11.0348 54.3662 10.8825 54.4412 10.7186 54.4627ZM10.7186 50.7127C10.5633 50.733 10.4055 50.7041 10.2674 50.6302C10.1293 50.5563 10.0178 50.4409 9.94854 50.3004C9.87931 50.1599 9.85583 50.0012 9.88138 49.8467C9.90693 49.6921 9.98023 49.5494 10.091 49.4387C10.2018 49.3279 10.3444 49.2546 10.499 49.229C10.6536 49.2035 10.8122 49.227 10.9528 49.2962C11.0933 49.3654 11.2086 49.4769 11.2825 49.615C11.3565 49.7531 11.3853 49.9109 11.365 50.0662C11.3436 50.2302 11.2686 50.3824 11.1517 50.4993C11.0348 50.6162 10.8825 50.6912 10.7186 50.7127ZM10.7186 46.9627C10.5633 46.983 10.4055 46.9541 10.2674 46.8802C10.1293 46.8063 10.0178 46.6909 9.94854 46.5504C9.87931 46.4099 9.85583 46.2512 9.88138 46.0967C9.90693 45.9421 9.98023 45.7994 10.091 45.6887C10.2018 45.5779 10.3444 45.5046 10.499 45.479C10.6536 45.4535 10.8122 45.477 10.9528 45.5462C11.0933 45.6154 11.2086 45.7269 11.2825 45.865C11.3565 46.0031 11.3853 46.1609 11.365 46.3162C11.3436 46.4802 11.2686 46.6324 11.1517 46.7493C11.0348 46.8662 10.8825 46.9412 10.7186 46.9627ZM10.7186 43.2127C10.5633 43.233 10.4055 43.2041 10.2674 43.1302C10.1293 43.0563 10.0178 42.9409 9.94854 42.8004C9.87931 42.6599 9.85583 42.5012 9.88138 42.3467C9.90693 42.1921 9.98023 42.0494 10.091 41.9387C10.2018 41.8279 10.3444 41.7546 10.499 41.729C10.6536 41.7035 10.8122 41.727 10.9528 41.7962C11.0933 41.8654 11.2086 41.9769 11.2825 42.115C11.3565 42.2531 11.3853 42.4109 11.365 42.5662C11.3436 42.7302 11.2686 42.8824 11.1517 42.9993C11.0348 43.1162 10.8825 43.1912 10.7186 43.2127ZM10.7186 39.4627C10.5633 39.483 10.4055 39.4541 10.2674 39.3802C10.1293 39.3063 10.0178 39.1909 9.94854 39.0504C9.87931 38.9099 9.85583 38.7512 9.88138 38.5967C9.90693 38.4421 9.98023 38.2994 10.091 38.1887C10.2018 38.0779 10.3444 38.0046 10.499 37.979C10.6536 37.9535 10.8122 37.977 10.9528 38.0462C11.0933 38.1154 11.2086 38.2269 11.2825 38.365C11.3565 38.5031 11.3853 38.6609 11.365 38.8163C11.3436 38.9802 11.2686 39.1324 11.1517 39.2493C11.0348 39.3662 10.8825 39.4412 10.7186 39.4627ZM14.4686 50.7127C14.3133 50.733 14.1555 50.7041 14.0174 50.6302C13.8793 50.5563 13.7678 50.4409 13.6985 50.3004C13.6293 50.1599 13.6058 50.0012 13.6314 49.8467C13.6569 49.6921 13.7302 49.5494 13.841 49.4387C13.9518 49.3279 14.0944 49.2546 14.249 49.229C14.4036 49.2035 14.5622 49.227 14.7028 49.2962C14.8433 49.3654 14.9586 49.4769 15.0325 49.615C15.1065 49.7531 15.1353 49.9109 15.115 50.0662C15.0936 50.2302 15.0186 50.3824 14.9017 50.4993C14.7848 50.6162 14.6325 50.6912 14.4686 50.7127ZM14.4686 46.9627C14.3133 46.983 14.1555 46.9541 14.0174 46.8802C13.8793 46.8063 13.7678 46.6909 13.6985 46.5504C13.6293 46.4099 13.6058 46.2512 13.6314 46.0967C13.6569 45.9421 13.7302 45.7994 13.841 45.6887C13.9518 45.5779 14.0944 45.5046 14.249 45.479C14.4036 45.4535 14.5622 45.477 14.7028 45.5462C14.8433 45.6154 14.9586 45.7269 15.0325 45.865C15.1065 46.0031 15.1353 46.1609 15.115 46.3162C15.0936 46.4802 15.0186 46.6324 14.9017 46.7493C14.7848 46.8662 14.6325 46.9412 14.4686 46.9627ZM14.4686 43.2127C14.3133 43.233 14.1555 43.2041 14.0174 43.1302C13.8793 43.0563 13.7678 42.9409 13.6985 42.8004C13.6293 42.6599 13.6058 42.5012 13.6314 42.3467C13.6569 42.1921 13.7302 42.0494 13.841 41.9387C13.9518 41.8279 14.0944 41.7546 14.249 41.729C14.4036 41.7035 14.5622 41.727 14.7028 41.7962C14.8433 41.8654 14.9586 41.9769 15.0325 42.115C15.1065 42.2531 15.1353 42.4109 15.115 42.5662C15.0936 42.7302 15.0186 42.8824 14.9017 42.9993C14.7848 43.1162 14.6325 43.1912 14.4686 43.2127ZM14.4686 39.4627C14.3133 39.483 14.1555 39.4541 14.0174 39.3802C13.8793 39.3063 13.7678 39.1909 13.6985 39.0504C13.6293 38.9099 13.6058 38.7512 13.6314 38.5967C13.6569 38.4421 13.7302 38.2994 13.841 38.1887C13.9518 38.0779 14.0944 38.0046 14.249 37.979C14.4036 37.9535 14.5622 37.977 14.7028 38.0462C14.8433 38.1154 14.9586 38.2269 15.0325 38.365C15.1065 38.5031 15.1353 38.6609 15.115 38.8163C15.0936 38.9802 15.0186 39.1324 14.9017 39.2493C14.7848 39.3662 14.6325 39.4412 14.4686 39.4627ZM18.2186 54.4627C18.0633 54.483 17.9055 54.4541 17.7674 54.3802C17.6293 54.3063 17.5178 54.1909 17.4485 54.0504C17.3793 53.9099 17.3558 53.7512 17.3814 53.5967C17.4069 53.4421 17.4802 53.2994 17.591 53.1887C17.7018 53.0779 17.8444 53.0046 17.999 52.979C18.1536 52.9535 18.3122 52.977 18.4528 53.0462C18.5933 53.1154 18.7086 53.2269 18.7825 53.365C18.8565 53.5031 18.8853 53.6609 18.865 53.8162C18.8436 53.9802 18.7686 54.1324 18.6517 54.2493C18.5348 54.3662 18.3825 54.4412 18.2186 54.4627ZM18.2186 50.7127C18.0633 50.733 17.9055 50.7041 17.7674 50.6302C17.6293 50.5563 17.5178 50.4409 17.4485 50.3004C17.3793 50.1599 17.3558 50.0012 17.3814 49.8467C17.4069 49.6921 17.4802 49.5494 17.591 49.4387C17.7018 49.3279 17.8444 49.2546 17.999 49.229C18.1536 49.2035 18.3122 49.227 18.4528 49.2962C18.5933 49.3654 18.7086 49.4769 18.7825 49.615C18.8565 49.7531 18.8853 49.9109 18.865 50.0662C18.8436 50.2302 18.7686 50.3824 18.6517 50.4993C18.5348 50.6162 18.3825 50.6912 18.2186 50.7127ZM18.2186 46.9627C18.0633 46.983 17.9055 46.9541 17.7674 46.8802C17.6293 46.8063 17.5178 46.6909 17.4485 46.5504C17.3793 46.4099 17.3558 46.2512 17.3814 46.0967C17.4069 45.9421 17.4802 45.7994 17.591 45.6887C17.7018 45.5779 17.8444 45.5046 17.999 45.479C18.1536 45.4535 18.3122 45.477 18.4528 45.5462C18.5933 45.6154 18.7086 45.7269 18.7825 45.865C18.8565 46.0031 18.8853 46.1609 18.865 46.3162C18.8436 46.4802 18.7686 46.6324 18.6517 46.7493C18.5348 46.8662 18.3825 46.9412 18.2186 46.9627ZM18.2186 43.2127C18.0633 43.233 17.9055 43.2041 17.7674 43.1302C17.6293 43.0563 17.5178 42.9409 17.4485 42.8004C17.3793 42.6599 17.3558 42.5012 17.3814 42.3467C17.4069 42.1921 17.4802 42.0494 17.591 41.9387C17.7018 41.8279 17.8444 41.7546 17.999 41.729C18.1536 41.7035 18.3122 41.727 18.4528 41.7962C18.5933 41.8654 18.7086 41.9769 18.7825 42.115C18.8565 42.2531 18.8853 42.4109 18.865 42.5662C18.8436 42.7302 18.7686 42.8824 18.6517 42.9993C18.5348 43.1162 18.3825 43.1912 18.2186 43.2127ZM18.2186 39.4627C18.0633 39.483 17.9055 39.4541 17.7674 39.3802C17.6293 39.3063 17.5178 39.1909 17.4485 39.0504C17.3793 38.9099 17.3558 38.7512 17.3814 38.5967C17.4069 38.4421 17.4802 38.2994 17.591 38.1887C17.7018 38.0779 17.8444 38.0046 17.999 37.979C18.1536 37.9535 18.3122 37.977 18.4528 38.0462C18.5933 38.1154 18.7086 38.2269 18.7825 38.365C18.8565 38.5031 18.8853 38.6609 18.865 38.8163C18.8436 38.9802 18.7686 39.1324 18.6517 39.2493C18.5348 39.3662 18.3825 39.4412 18.2186 39.4627ZM26.9336 55.9688H21.1211L21.1211 43.9688H26.3711C26.57 43.9688 26.7608 44.0478 26.9014 44.1884C27.0421 44.3291 27.1211 44.5198 27.1211 44.7188L27.1211 55.7812C27.1211 55.831 27.1013 55.8787 27.0662 55.9138C27.031 55.949 26.9833 55.9688 26.9336 55.9688Z"/>
</mask>
<path d="M26.3711 42.4688H21.1211V37.2188C21.1211 36.622 20.884 36.0497 20.4621 35.6278C20.0401 35.2058 19.4678 34.9688 18.8711 34.9688H9.87109C9.27436 34.9688 8.70206 35.2058 8.2801 35.6278C7.85815 36.0497 7.62109 36.622 7.62109 37.2188L7.62109 56.7188C7.62109 56.9177 7.70011 57.1084 7.84076 57.2491C7.98142 57.3897 8.17218 57.4688 8.37109 57.4688H13.2461C13.3456 57.4688 13.4409 57.4292 13.5113 57.3589C13.5816 57.2886 13.6211 57.1932 13.6211 57.0938V53.7398C13.6211 53.3363 13.9314 52.9898 14.335 52.9697C14.4364 52.9648 14.5378 52.9806 14.6329 53.016C14.728 53.0514 14.815 53.1058 14.8885 53.1759C14.962 53.2459 15.0205 53.3301 15.0605 53.4234C15.1005 53.5168 15.1211 53.6172 15.1211 53.7188V57.0938C15.1211 57.1932 15.1606 57.2886 15.2309 57.3589C15.3013 57.4292 15.3966 57.4688 15.4961 57.4688H27.8711C28.07 57.4688 28.2608 57.3897 28.4014 57.2491C28.5421 57.1084 28.6211 56.9177 28.6211 56.7188L28.6211 44.7188C28.6211 44.122 28.384 43.5497 27.9621 43.1278C27.5401 42.7058 26.9678 42.4688 26.3711 42.4688ZM10.7186 54.4627C10.5633 54.483 10.4055 54.4541 10.2674 54.3802C10.1293 54.3063 10.0178 54.1909 9.94854 54.0504C9.87931 53.9099 9.85583 53.7512 9.88138 53.5967C9.90693 53.4421 9.98023 53.2994 10.091 53.1887C10.2018 53.0779 10.3444 53.0046 10.499 52.979C10.6536 52.9535 10.8122 52.977 10.9528 53.0462C11.0933 53.1154 11.2086 53.2269 11.2825 53.365C11.3565 53.5031 11.3853 53.6609 11.365 53.8162C11.3436 53.9802 11.2686 54.1324 11.1517 54.2493C11.0348 54.3662 10.8825 54.4412 10.7186 54.4627ZM10.7186 50.7127C10.5633 50.733 10.4055 50.7041 10.2674 50.6302C10.1293 50.5563 10.0178 50.4409 9.94854 50.3004C9.87931 50.1599 9.85583 50.0012 9.88138 49.8467C9.90693 49.6921 9.98023 49.5494 10.091 49.4387C10.2018 49.3279 10.3444 49.2546 10.499 49.229C10.6536 49.2035 10.8122 49.227 10.9528 49.2962C11.0933 49.3654 11.2086 49.4769 11.2825 49.615C11.3565 49.7531 11.3853 49.9109 11.365 50.0662C11.3436 50.2302 11.2686 50.3824 11.1517 50.4993C11.0348 50.6162 10.8825 50.6912 10.7186 50.7127ZM10.7186 46.9627C10.5633 46.983 10.4055 46.9541 10.2674 46.8802C10.1293 46.8063 10.0178 46.6909 9.94854 46.5504C9.87931 46.4099 9.85583 46.2512 9.88138 46.0967C9.90693 45.9421 9.98023 45.7994 10.091 45.6887C10.2018 45.5779 10.3444 45.5046 10.499 45.479C10.6536 45.4535 10.8122 45.477 10.9528 45.5462C11.0933 45.6154 11.2086 45.7269 11.2825 45.865C11.3565 46.0031 11.3853 46.1609 11.365 46.3162C11.3436 46.4802 11.2686 46.6324 11.1517 46.7493C11.0348 46.8662 10.8825 46.9412 10.7186 46.9627ZM10.7186 43.2127C10.5633 43.233 10.4055 43.2041 10.2674 43.1302C10.1293 43.0563 10.0178 42.9409 9.94854 42.8004C9.87931 42.6599 9.85583 42.5012 9.88138 42.3467C9.90693 42.1921 9.98023 42.0494 10.091 41.9387C10.2018 41.8279 10.3444 41.7546 10.499 41.729C10.6536 41.7035 10.8122 41.727 10.9528 41.7962C11.0933 41.8654 11.2086 41.9769 11.2825 42.115C11.3565 42.2531 11.3853 42.4109 11.365 42.5662C11.3436 42.7302 11.2686 42.8824 11.1517 42.9993C11.0348 43.1162 10.8825 43.1912 10.7186 43.2127ZM10.7186 39.4627C10.5633 39.483 10.4055 39.4541 10.2674 39.3802C10.1293 39.3063 10.0178 39.1909 9.94854 39.0504C9.87931 38.9099 9.85583 38.7512 9.88138 38.5967C9.90693 38.4421 9.98023 38.2994 10.091 38.1887C10.2018 38.0779 10.3444 38.0046 10.499 37.979C10.6536 37.9535 10.8122 37.977 10.9528 38.0462C11.0933 38.1154 11.2086 38.2269 11.2825 38.365C11.3565 38.5031 11.3853 38.6609 11.365 38.8163C11.3436 38.9802 11.2686 39.1324 11.1517 39.2493C11.0348 39.3662 10.8825 39.4412 10.7186 39.4627ZM14.4686 50.7127C14.3133 50.733 14.1555 50.7041 14.0174 50.6302C13.8793 50.5563 13.7678 50.4409 13.6985 50.3004C13.6293 50.1599 13.6058 50.0012 13.6314 49.8467C13.6569 49.6921 13.7302 49.5494 13.841 49.4387C13.9518 49.3279 14.0944 49.2546 14.249 49.229C14.4036 49.2035 14.5622 49.227 14.7028 49.2962C14.8433 49.3654 14.9586 49.4769 15.0325 49.615C15.1065 49.7531 15.1353 49.9109 15.115 50.0662C15.0936 50.2302 15.0186 50.3824 14.9017 50.4993C14.7848 50.6162 14.6325 50.6912 14.4686 50.7127ZM14.4686 46.9627C14.3133 46.983 14.1555 46.9541 14.0174 46.8802C13.8793 46.8063 13.7678 46.6909 13.6985 46.5504C13.6293 46.4099 13.6058 46.2512 13.6314 46.0967C13.6569 45.9421 13.7302 45.7994 13.841 45.6887C13.9518 45.5779 14.0944 45.5046 14.249 45.479C14.4036 45.4535 14.5622 45.477 14.7028 45.5462C14.8433 45.6154 14.9586 45.7269 15.0325 45.865C15.1065 46.0031 15.1353 46.1609 15.115 46.3162C15.0936 46.4802 15.0186 46.6324 14.9017 46.7493C14.7848 46.8662 14.6325 46.9412 14.4686 46.9627ZM14.4686 43.2127C14.3133 43.233 14.1555 43.2041 14.0174 43.1302C13.8793 43.0563 13.7678 42.9409 13.6985 42.8004C13.6293 42.6599 13.6058 42.5012 13.6314 42.3467C13.6569 42.1921 13.7302 42.0494 13.841 41.9387C13.9518 41.8279 14.0944 41.7546 14.249 41.729C14.4036 41.7035 14.5622 41.727 14.7028 41.7962C14.8433 41.8654 14.9586 41.9769 15.0325 42.115C15.1065 42.2531 15.1353 42.4109 15.115 42.5662C15.0936 42.7302 15.0186 42.8824 14.9017 42.9993C14.7848 43.1162 14.6325 43.1912 14.4686 43.2127ZM14.4686 39.4627C14.3133 39.483 14.1555 39.4541 14.0174 39.3802C13.8793 39.3063 13.7678 39.1909 13.6985 39.0504C13.6293 38.9099 13.6058 38.7512 13.6314 38.5967C13.6569 38.4421 13.7302 38.2994 13.841 38.1887C13.9518 38.0779 14.0944 38.0046 14.249 37.979C14.4036 37.9535 14.5622 37.977 14.7028 38.0462C14.8433 38.1154 14.9586 38.2269 15.0325 38.365C15.1065 38.5031 15.1353 38.6609 15.115 38.8163C15.0936 38.9802 15.0186 39.1324 14.9017 39.2493C14.7848 39.3662 14.6325 39.4412 14.4686 39.4627ZM18.2186 54.4627C18.0633 54.483 17.9055 54.4541 17.7674 54.3802C17.6293 54.3063 17.5178 54.1909 17.4485 54.0504C17.3793 53.9099 17.3558 53.7512 17.3814 53.5967C17.4069 53.4421 17.4802 53.2994 17.591 53.1887C17.7018 53.0779 17.8444 53.0046 17.999 52.979C18.1536 52.9535 18.3122 52.977 18.4528 53.0462C18.5933 53.1154 18.7086 53.2269 18.7825 53.365C18.8565 53.5031 18.8853 53.6609 18.865 53.8162C18.8436 53.9802 18.7686 54.1324 18.6517 54.2493C18.5348 54.3662 18.3825 54.4412 18.2186 54.4627ZM18.2186 50.7127C18.0633 50.733 17.9055 50.7041 17.7674 50.6302C17.6293 50.5563 17.5178 50.4409 17.4485 50.3004C17.3793 50.1599 17.3558 50.0012 17.3814 49.8467C17.4069 49.6921 17.4802 49.5494 17.591 49.4387C17.7018 49.3279 17.8444 49.2546 17.999 49.229C18.1536 49.2035 18.3122 49.227 18.4528 49.2962C18.5933 49.3654 18.7086 49.4769 18.7825 49.615C18.8565 49.7531 18.8853 49.9109 18.865 50.0662C18.8436 50.2302 18.7686 50.3824 18.6517 50.4993C18.5348 50.6162 18.3825 50.6912 18.2186 50.7127ZM18.2186 46.9627C18.0633 46.983 17.9055 46.9541 17.7674 46.8802C17.6293 46.8063 17.5178 46.6909 17.4485 46.5504C17.3793 46.4099 17.3558 46.2512 17.3814 46.0967C17.4069 45.9421 17.4802 45.7994 17.591 45.6887C17.7018 45.5779 17.8444 45.5046 17.999 45.479C18.1536 45.4535 18.3122 45.477 18.4528 45.5462C18.5933 45.6154 18.7086 45.7269 18.7825 45.865C18.8565 46.0031 18.8853 46.1609 18.865 46.3162C18.8436 46.4802 18.7686 46.6324 18.6517 46.7493C18.5348 46.8662 18.3825 46.9412 18.2186 46.9627ZM18.2186 43.2127C18.0633 43.233 17.9055 43.2041 17.7674 43.1302C17.6293 43.0563 17.5178 42.9409 17.4485 42.8004C17.3793 42.6599 17.3558 42.5012 17.3814 42.3467C17.4069 42.1921 17.4802 42.0494 17.591 41.9387C17.7018 41.8279 17.8444 41.7546 17.999 41.729C18.1536 41.7035 18.3122 41.727 18.4528 41.7962C18.5933 41.8654 18.7086 41.9769 18.7825 42.115C18.8565 42.2531 18.8853 42.4109 18.865 42.5662C18.8436 42.7302 18.7686 42.8824 18.6517 42.9993C18.5348 43.1162 18.3825 43.1912 18.2186 43.2127ZM18.2186 39.4627C18.0633 39.483 17.9055 39.4541 17.7674 39.3802C17.6293 39.3063 17.5178 39.1909 17.4485 39.0504C17.3793 38.9099 17.3558 38.7512 17.3814 38.5967C17.4069 38.4421 17.4802 38.2994 17.591 38.1887C17.7018 38.0779 17.8444 38.0046 17.999 37.979C18.1536 37.9535 18.3122 37.977 18.4528 38.0462C18.5933 38.1154 18.7086 38.2269 18.7825 38.365C18.8565 38.5031 18.8853 38.6609 18.865 38.8163C18.8436 38.9802 18.7686 39.1324 18.6517 39.2493C18.5348 39.3662 18.3825 39.4412 18.2186 39.4627ZM26.9336 55.9688H21.1211L21.1211 43.9688H26.3711C26.57 43.9688 26.7608 44.0478 26.9014 44.1884C27.0421 44.3291 27.1211 44.5198 27.1211 44.7188L27.1211 55.7812C27.1211 55.831 27.1013 55.8787 27.0662 55.9138C27.031 55.949 26.9833 55.9688 26.9336 55.9688Z" fill="#112211" stroke="#112211" stroke-width="0.09375" mask="url(#path-3-inside-1_101_8484)"/>
</g>
<path d="M24.8711 52.9688C24.7228 52.9688 24.5778 53.0127 24.4544 53.0951C24.3311 53.1776 24.235 53.2947 24.1782 53.4317C24.1214 53.5688 24.1066 53.7196 24.1355 53.8651C24.1644 54.0106 24.2359 54.1442 24.3408 54.2491C24.4457 54.354 24.5793 54.4254 24.7248 54.4543C24.8703 54.4833 25.0211 54.4684 25.1581 54.4117C25.2952 54.3549 25.4123 54.2588 25.4947 54.1354C25.5771 54.0121 25.6211 53.8671 25.6211 53.7188C25.6211 53.5198 25.5421 53.3291 25.4014 53.1884C25.2608 53.0478 25.07 52.9688 24.8711 52.9688ZM24.8711 49.2188C24.7228 49.2188 24.5778 49.2627 24.4544 49.3451C24.3311 49.4276 24.235 49.5447 24.1782 49.6817C24.1214 49.8188 24.1066 49.9696 24.1355 50.1151C24.1644 50.2606 24.2359 50.3942 24.3408 50.4991C24.4457 50.604 24.5793 50.6754 24.7248 50.7043C24.8703 50.7333 25.0211 50.7184 25.1581 50.6617C25.2952 50.6049 25.4123 50.5088 25.4947 50.3854C25.5771 50.2621 25.6211 50.1171 25.6211 49.9688C25.6211 49.7698 25.5421 49.5791 25.4014 49.4384C25.2608 49.2978 25.07 49.2188 24.8711 49.2188ZM24.8711 45.4688C24.7228 45.4688 24.5778 45.5127 24.4544 45.5951C24.3311 45.6776 24.235 45.7947 24.1782 45.9317C24.1214 46.0688 24.1066 46.2196 24.1355 46.3651C24.1644 46.5106 24.2359 46.6442 24.3408 46.7491C24.4457 46.854 24.5793 46.9254 24.7248 46.9543C24.8703 46.9833 25.0211 46.9684 25.1581 46.9117C25.2952 46.8549 25.4123 46.7588 25.4947 46.6354C25.5771 46.5121 25.6211 46.3671 25.6211 46.2188C25.6211 46.0198 25.5421 45.8291 25.4014 45.6884C25.2608 45.5478 25.07 45.4688 24.8711 45.4688ZM21.8711 52.9688C21.7228 52.9688 21.5778 53.0127 21.4544 53.0951C21.3311 53.1776 21.235 53.2947 21.1782 53.4317C21.1214 53.5688 21.1066 53.7196 21.1355 53.8651C21.1644 54.0106 21.2359 54.1442 21.3408 54.2491C21.4457 54.354 21.5793 54.4254 21.7248 54.4543C21.8703 54.4833 22.0211 54.4684 22.1581 54.4117C22.2952 54.3549 22.4123 54.2588 22.4947 54.1354C22.5771 54.0121 22.6211 53.8671 22.6211 53.7188C22.6211 53.5198 22.5421 53.3291 22.4014 53.1884C22.2608 53.0478 22.07 52.9688 21.8711 52.9688ZM21.8711 49.2188C21.7228 49.2188 21.5778 49.2627 21.4544 49.3451C21.3311 49.4276 21.235 49.5447 21.1782 49.6817C21.1214 49.8188 21.1066 49.9696 21.1355 50.1151C21.1644 50.2606 21.2359 50.3942 21.3408 50.4991C21.4457 50.604 21.5793 50.6754 21.7248 50.7043C21.8703 50.7333 22.0211 50.7184 22.1581 50.6617C22.2952 50.6049 22.4123 50.5088 22.4947 50.3854C22.5771 50.2621 22.6211 50.1171 22.6211 49.9688C22.6211 49.7698 22.5421 49.5791 22.4014 49.4384C22.2608 49.2978 22.07 49.2188 21.8711 49.2188ZM21.8711 45.4688C21.7228 45.4688 21.5778 45.5127 21.4544 45.5951C21.3311 45.6776 21.235 45.7947 21.1782 45.9317C21.1214 46.0688 21.1066 46.2196 21.1355 46.3651C21.1644 46.5106 21.2359 46.6442 21.3408 46.7491C21.4457 46.854 21.5793 46.9254 21.7248 46.9543C21.8703 46.9833 22.0211 46.9684 22.1581 46.9117C22.2952 46.8549 22.4123 46.7588 22.4947 46.6354C22.5771 46.5121 22.6211 46.3671 22.6211 46.2188C22.6211 46.0198 22.5421 45.8291 22.4014 45.6884C22.2608 45.5478 22.07 45.4688 21.8711 45.4688Z" fill="#BFCCC5"/>
<path opacity="0.25" d="M36.1211 92.2188L18.1211 82.2188M0.121094 92.2188L18.1211 82.2188M18.1211 82.2188V66.2188" stroke="#112211" stroke-width="0.5"/>
</svg>
