<svg width="15" height="18" viewBox="0 0 15 18" fill="#112211" xmlns="http://www.w3.org/2000/svg">
<path d="M0.625 17.5C0.45924 17.5 0.300269 17.4342 0.183058 17.3169C0.0658481 17.1997 0 17.0408 0 16.875V1.41133C4.4716e-05 1.24757 0.0429822 1.08668 0.124538 0.94468C0.206094 0.802677 0.323423 0.684514 0.464844 0.601953C0.9375 0.327344 1.88984 0 3.75 0C5.20352 0 6.8293 0.574609 8.26367 1.08125C9.41875 1.48945 10.5098 1.875 11.25 1.875C12.2029 1.87208 13.1457 1.67953 14.0234 1.30859C14.1303 1.26348 14.2467 1.24551 14.3622 1.25629C14.4777 1.26708 14.5888 1.30628 14.6855 1.3704C14.7822 1.43452 14.8615 1.52158 14.9164 1.6238C14.9713 1.72602 15 1.84023 15 1.95625V10.525C14.9998 10.6769 14.9554 10.8254 14.8722 10.9524C14.7889 11.0795 14.6704 11.1795 14.5312 11.2402C14.191 11.3891 12.9488 11.875 11.25 11.875C10.307 11.875 9.12578 11.5961 7.87539 11.3004C6.46992 10.9684 5.0168 10.625 3.75 10.625C2.30977 10.625 1.57266 10.843 1.25 10.9809V16.875C1.25 17.0408 1.18415 17.1997 1.06694 17.3169C0.949731 17.4342 0.79076 17.5 0.625 17.5Z" fill="#112211"/>
</svg>
