<svg width="25" height="22" viewBox="0 0 25 22" fill="none" xmlns="http://www.w3.org/2000/svg">
<path d="M3.66406 0.5C2.00938 0.5 0.664062 1.84531 0.664062 3.5V18.5C0.664062 20.1547 2.00938 21.5 3.66406 21.5H21.6641C23.3188 21.5 24.6641 20.1547 24.6641 18.5V8C24.6641 6.34531 23.3188 5 21.6641 5H4.41406C4.00156 5 3.66406 4.6625 3.66406 4.25C3.66406 3.8375 4.00156 3.5 4.41406 3.5H21.6641C22.4937 3.5 23.1641 2.82969 23.1641 2C23.1641 1.17031 22.4937 0.5 21.6641 0.5H3.66406ZM20.1641 11.75C20.5619 11.75 20.9434 11.908 21.2247 12.1893C21.506 12.4706 21.6641 12.8522 21.6641 13.25C21.6641 13.6478 21.506 14.0294 21.2247 14.3107C20.9434 14.592 20.5619 14.75 20.1641 14.75C19.7662 14.75 19.3847 14.592 19.1034 14.3107C18.8221 14.0294 18.6641 13.6478 18.6641 13.25C18.6641 12.8522 18.8221 12.4706 19.1034 12.1893C19.3847 11.908 19.7662 11.75 20.1641 11.75Z" fill="#38C695"/>
</svg>
