<svg width="28" height="25" viewBox="0 0 28 25" fill="none" xmlns="http://www.w3.org/2000/svg">
<path d="M21.7626 7.98982C20.3489 5.04029 17.4017 3.00757 13.4702 3.00757C7.85552 3.00757 4.35352 7.15345 4.35352 12.1948C4.35352 15.4133 5.73305 18.2436 8.20055 19.8843C8.34115 19.7791 8.42584 19.7108 8.42584 19.7108C9.6566 18.9077 10.8573 18.0624 12.0258 17.1765C9.82437 16.5287 8.7127 14.4223 8.7127 12.1948C8.7127 9.54984 10.3601 6.97499 13.5021 6.97499C16.269 6.97499 18.0793 9.26865 18.274 11.7501C19.4868 10.5464 20.6507 9.29205 21.7626 7.98982Z" fill="#8DD3BB"/>
<path d="M13.0601 21.3736C16.5418 18.9057 19.7611 16.0867 22.6652 12.9631C22.3328 17.6796 18.9335 21.382 13.5052 21.382C13.3553 21.382 13.2069 21.3792 13.0601 21.3736Z" fill="#8DD3BB"/>
<path d="M25.3179 0.537909C20.8631 -1.10005 17.6607 2.42443 17.6607 2.42443L20.6974 4.18985C21.835 3.53658 22.3417 4.17073 22.4723 4.51808C22.5648 4.76346 22.4405 5.03114 22.3417 5.17772L21.6024 6.11142C17.6129 10.9233 12.9223 15.1043 7.68681 18.5204C7.68681 18.5204 6.10629 19.7951 5.26504 19.8142C4.55763 19.8301 4.24216 19.2342 4.83805 18.3802L3.37224 15.0724C3.37224 15.0724 -0.442043 17.5707 0.297233 21.962C0.609513 23.8167 2.35255 25.1359 4.20393 24.8013C5.15033 24.6324 6.31979 24.1704 7.75054 23.2239L10.3826 21.5031C15.6181 18.0806 20.3119 13.8869 24.2982 9.06867L25.2032 7.97564C26.567 6.42372 27.1789 5.14586 27.386 4.13568C27.7046 2.59014 26.7901 1.07965 25.3179 0.537909Z" fill="#8DD3BB"/>
</svg>
